<svg xmlns="http://www.w3.org/2000/svg" viewBox="0 0 400 400" width="400" height="400">
  <!-- 背景圆环 -->
  <defs>
    <linearGradient id="outerRingGradient" x1="0%" y1="0%" x2="100%" y2="100%">
      <stop offset="0%" stop-color="#0a2463"/>
      <stop offset="100%" stop-color="#1e3a8a"/>
    </linearGradient>
    <linearGradient id="innerRingGradient" x1="0%" y1="0%" x2="100%" y2="100%">
      <stop offset="0%" stop-color="#134e4a"/>
      <stop offset="100%" stop-color="#0f766e"/>
    </linearGradient>
    <radialGradient id="globeGradient" cx="50%" cy="50%" r="50%" fx="40%" fy="40%">
      <stop offset="0%" stop-color="#0e7490"/>
      <stop offset="100%" stop-color="#0369a1"/>
    </radialGradient>
  </defs>
  
  <!-- 外部圆环 -->
  <circle cx="200" cy="200" r="180" fill="url(#outerRingGradient)" stroke="#f59e0b" stroke-width="12"/>
  
  <!-- 内部圆环 -->
  <circle cx="200" cy="200" r="160" fill="url(#innerRingGradient)"/>
  
  <!-- 地球背景 -->
  <circle cx="200" cy="200" r="120" fill="url(#globeGradient)"/>
  
  <!-- 地球网格 -->
  <g stroke="#f59e0b" stroke-width="2" opacity="0.6">
    <!-- 经线 -->
    <ellipse cx="200" cy="200" rx="120" ry="40"/>
    <ellipse cx="200" cy="200" rx="120" ry="40" transform="rotate(30 200 200)"/>
    <ellipse cx="200" cy="200" rx="120" ry="40" transform="rotate(60 200 200)"/>
    <ellipse cx="200" cy="200" rx="120" ry="40" transform="rotate(90 200 200)"/>
    <ellipse cx="200" cy="200" rx="120" ry="40" transform="rotate(120 200 200)"/>
    <ellipse cx="200" cy="200" rx="120" ry="40" transform="rotate(150 200 200)"/>
    
    <!-- 纬线 -->
    <circle cx="200" cy="200" r="120"/>
    <circle cx="200" cy="200" r="90"/>
    <circle cx="200" cy="200" r="60"/>
    <circle cx="200" cy="200" r="30"/>
  </g>
  
  <!-- 锚图标 -->
  <g transform="translate(150, 200) scale(0.4)" fill="#f59e0b">
    <path d="M50,0 C50,0 25,40 25,60 C25,80 0,100 0,130 C0,160 30,180 50,180 C70,180 100,160 100,130 C100,100 75,80 75,60 C75,40 50,0 50,0 Z"/>
    <path d="M50,60 C50,60 35,80 35,110 C35,140 65,140 65,110 C65,80 50,60 50,60 Z"/>
    <path d="M50,0 L50,40" stroke="#f59e0b" stroke-width="10" stroke-linecap="round"/>
  </g>
  
  <!-- 电路板图标 -->
  <g transform="translate(250, 200) scale(0.35)" fill="none" stroke="#f59e0b" stroke-width="8">
    <rect x="0" y="0" width="200" height="200" rx="10"/>
    <path d="M50,50 L150,50 L150,150 L50,150 Z"/>
    <circle cx="100" cy="100" r="20"/>
    <circle cx="50" cy="50" r="10" fill="#f59e0b"/>
    <circle cx="150" cy="50" r="10" fill="#f59e0b"/>
    <circle cx="150" cy="150" r="10" fill="#f59e0b"/>
    <circle cx="50" cy="150" r="10" fill="#f59e0b"/>
    <path d="M100,100 L50,50" stroke-width="5"/>
    <path d="M100,100 L150,50" stroke-width="5"/>
    <path d="M100,100 L150,150" stroke-width="5"/>
    <path d="M100,100 L50,150" stroke-width="5"/>
  </g>
  
  <!-- 书本图标 -->
  <g transform="translate(245, 250) scale(0.3)" fill="#f59e0b">
    <path d="M0,0 L150,50 L150,200 L0,150 Z"/>
    <path d="M150,50 L180,60 L180,210 L150,200 Z" fill="#d97706"/>
    <path d="M0,30 L150,80" stroke="#d97706" stroke-width="5"/>
    <path d="M0,60 L150,110" stroke="#d97706" stroke-width="5"/>
    <path d="M0,90 L150,140" stroke="#d97706" stroke-width="5"/>
    <path d="M0,120 L130,160" stroke="#d97706" stroke-width="5"/>
  </g>
  
  <!-- 齿轮图标 -->
  <g transform="translate(155, 250) scale(0.25)" fill="#f59e0b">
    <path d="M150,0 C180,30 180,80 150,110 C120,80 120,30 150,0 Z"/>
    <path d="M270,150 C240,180 190,180 160,150 C190,120 240,120 270,150 Z"/>
    <path d="M150,270 C120,240 120,190 150,160 C180,190 180,240 150,270 Z"/>
    <path d="M30,150 C60,120 110,120 140,150 C110,180 60,180 30,150 Z"/>
    <circle cx="150" cy="150" r="60"/>
    <circle cx="150" cy="150" r="20" fill="#d97706"/>
  </g>
  
  <!-- 下方装饰 -->
  <path d="M120,320 L280,320" stroke="#f59e0b" stroke-width="8" stroke-linecap="round"/>
  <path d="M140,320 C160,350 240,350 260,320" fill="none" stroke="#f59e0b" stroke-width="6"/>
  
  <!-- 左侧麦穗 -->
  <g transform="translate(100, 240) scale(0.4)" fill="#f59e0b">
    <path d="M0,0 L0,200" stroke="#f59e0b" stroke-width="10"/>
    <path d="M0,40 L60,20" stroke="#f59e0b" stroke-width="6" stroke-linecap="round"/>
    <path d="M0,60 L70,30" stroke="#f59e0b" stroke-width="6" stroke-linecap="round"/>
    <path d="M0,80 L80,40" stroke="#f59e0b" stroke-width="6" stroke-linecap="round"/>
    <path d="M0,100 L90,50" stroke="#f59e0b" stroke-width="6" stroke-linecap="round"/>
    <path d="M0,120 L80,70" stroke="#f59e0b" stroke-width="6" stroke-linecap="round"/>
    <path d="M0,140 L70,90" stroke="#f59e0b" stroke-width="6" stroke-linecap="round"/>
    <path d="M0,160 L60,110" stroke="#f59e0b" stroke-width="6" stroke-linecap="round"/>
    <path d="M0,180 L50,130" stroke="#f59e0b" stroke-width="6" stroke-linecap="round"/>
  </g>
  
  <!-- 右侧麦穗 -->
  <g transform="translate(300, 240) scale(0.4) rotate(180)" fill="#f59e0b">
    <path d="M0,0 L0,200" stroke="#f59e0b" stroke-width="10"/>
    <path d="M0,40 L60,20" stroke="#f59e0b" stroke-width="6" stroke-linecap="round"/>
    <path d="M0,60 L70,30" stroke="#f59e0b" stroke-width="6" stroke-linecap="round"/>
    <path d="M0,80 L80,40" stroke="#f59e0b" stroke-width="6" stroke-linecap="round"/>
    <path d="M0,100 L90,50" stroke="#f59e0b" stroke-width="6" stroke-linecap="round"/>
    <path d="M0,120 L80,70" stroke="#f59e0b" stroke-width="6" stroke-linecap="round"/>
    <path d="M0,140 L70,90" stroke="#f59e0b" stroke-width="6" stroke-linecap="round"/>
    <path d="M0,160 L60,110" stroke="#f59e0b" stroke-width="6" stroke-linecap="round"/>
    <path d="M0,180 L50,130" stroke="#f59e0b" stroke-width="6" stroke-linecap="round"/>
  </g>
  
  <!-- 上方文字 -->
  <text x="200" y="80" font-family="Arial, sans-serif" font-size="24" font-weight="bold" fill="#f59e0b" text-anchor="middle">江西工业工程职业技术学院</text>
  
  <!-- 下方文字 -->
  <text x="200" y="350" font-family="Arial, sans-serif" font-size="22" font-weight="bold" fill="#f59e0b" text-anchor="middle">JXGYGCZYJSXY</text>
</svg>